{
  "asset": {
    "version": "2.0",
    "generator": "THREE.GLTFExporter"
  },
  "scenes": [
    {
      "name": "AuxScene",
      "nodes": [
        30
      ]
    }
  ],
  "scene": 0,
  "nodes": [
    {
      "matrix": [
        1,
        0,
        0,
        0,
        0,
        1,
        0,
        0,
        0,
        0,
        1,
        0,
        0,
        21.056884765625,
        5.9006757736206055,
        1
      ],
      "name": "mixamorig_HeadTop_End",
      "extras": {
        "name": "mixamorig_HeadTop_End"
      }
    },
    {
      "matrix": [
        1,
        0,
        0,
        0,
        0,
        1,
        0,
        0,
        0,
        0,
        1,
        0,
        0,
        5.319122314453125,
        1.490553379058838,
        1
      ],
      "name": "mixamorig_Head",
      "extras": {
        "name": "mixamorig_Head"
      },
      "children": [
        0
      ]
    },
    {
      "matrix": [
        1,
        0,
        0,
        0,
        0,
        0.9999802691046842,
        -0.006281830957856838,
        0,
        0,
        0.006281830957856838,
        0.9999802691046842,
        0,
        0,
        16.215805053710938,
        7.755172504175789e-9,
        1
      ],
      "name": "mixamorig_Neck",
      "extras": {
        "name": "mixamorig_Neck"
      },
      "children": [
        1
      ]
    },
    {
      "matrix": [
        1,
        6.071532165918824e-17,
        -9.020562075079398e-17,
        0,
        -6.071532165918826e-17,
        1,
        -2.5740992453879286e-16,
        0,
        9.020562075079396e-17,
        2.5740992453879286e-16,
        1,
        0,
        2.220446049250313e-16,
        22.72873878479004,
        -2.842170943040401e-14,
        1
      ],
      "name": "mixamorig_LeftHand",
      "extras": {
        "name": "mixamorig_LeftHand"
      }
    },
    {
      "matrix": [
        0.9999205067219804,
        0.012608736491351068,
        -2.265925294619997e-12,
        0,
        -0.012607962313504707,
        0.9998591114881723,
        -0.011081356356545436,
        0,
        -0.00013972190083540517,
        0.011080475463227057,
        0.9999385998852959,
        0,
        0,
        21.868091583251953,
        2.842170943040401e-14,
        1
      ],
      "name": "mixamorig_LeftForeArm",
      "extras": {
        "name": "mixamorig_LeftForeArm"
      },
      "children": [
        3
      ]
    },
    {
      "matrix": [
        0.9999583306435432,
        -0.009128908644097558,
        5.152359094928727e-11,
        0,
        0.00889458579392953,
        0.9742911784296826,
        -0.2251168225387181,
        0,
        0.002055070944445986,
        0.2251074420656545,
        0.9743317782079163,
        0,
        0,
        10.680109977722168,
        0,
        1
      ],
      "name": "mixamorig_LeftArm",
      "extras": {
        "name": "mixamorig_LeftArm"
      },
      "children": [
        4
      ]
    },
    {
      "matrix": [
        0.0022442690654553843,
        2.9719112504267287e-7,
        -0.9999975033824651,
        0,
        0.9692708224922519,
        -0.2459865753629984,
        0.002175257985026491,
        0,
        -0.24598593341174002,
        -0.9692732633690149,
        -0.0005523752297680318,
        0,
        5.161595344543457,
        14.906556129455566,
        0.011588935740292072,
        1
      ],
      "name": "mixamorig_LeftShoulder",
      "extras": {
        "name": "mixamorig_LeftShoulder"
      },
      "children": [
        5
      ]
    },
    {
      "matrix": [
        1,
        -8.239936510889832e-17,
        -2.177077962350893e-16,
        0,
        8.239936510889835e-17,
        1,
        1.4011280200301734e-16,
        0,
        2.177077962350893e-16,
        -1.4011280200301734e-16,
        1,
        0,
        0,
        22.728418350219727,
        -5.684341886080802e-14,
        1
      ],
      "name": "mixamorig_RightHand",
      "extras": {
        "name": "mixamorig_RightHand"
      }
    },
    {
      "matrix": [
        0.9999994687901689,
        0.0010307372713508247,
        3.14895950027233e-14,
        0,
        -0.0010306752654081583,
        0.999939311941521,
        -0.010968597715682092,
        0,
        -0.000011305743123142124,
        0.010968591889054803,
        0.9999398431193961,
        0,
        0,
        21.867616653442383,
        0,
        1
      ],
      "name": "mixamorig_RightForeArm",
      "extras": {
        "name": "mixamorig_RightForeArm"
      },
      "children": [
        7
      ]
    },
    {
      "matrix": [
        0.9999968500730435,
        0.002509948996544056,
        9.155268557159424e-12,
        0,
        -0.0024454952126151093,
        0.9743176117026741,
        -0.22516485265138092,
        0,
        -0.0005651523071961203,
        0.2251641433985166,
        0.9743206807416451,
        0,
        1.1102230246251565e-16,
        10.680109977722168,
        0,
        1
      ],
      "name": "mixamorig_RightArm",
      "extras": {
        "name": "mixamorig_RightArm"
      },
      "children": [
        8
      ]
    },
    {
      "matrix": [
        0.0009440943982497174,
        8.612912552052876e-7,
        0.9999995593155546,
        0,
        -0.9692708072948903,
        -0.24599446488915078,
        0.0009153002406634414,
        0,
        0.24599435106919998,
        -0.9692712394618326,
        -0.00023141336833987225,
        0,
        -5.161595344543457,
        14.906513214111328,
        0.004860627464950085,
        1
      ],
      "name": "mixamorig_RightShoulder",
      "extras": {
        "name": "mixamorig_RightShoulder"
      },
      "children": [
        9
      ]
    },
    {
      "matrix": [
        1,
        0,
        0,
        0,
        0,
        1,
        8.673617379884035e-19,
        0,
        0,
        -8.673617379884035e-19,
        1,
        0,
        0,
        14.414056777954102,
        0,
        1
      ],
      "name": "mixamorig_Spine2",
      "extras": {
        "name": "mixamorig_Spine2"
      },
      "children": [
        2,
        6,
        10
      ]
    },
    {
      "matrix": [
        1,
        0,
        0,
        0,
        0,
        1,
        2.7221789267173335e-9,
        0,
        0,
        -2.7221789267173335e-9,
        1,
        0,
        0,
        12.612300872802734,
        0,
        1
      ],
      "name": "mixamorig_Spine1",
      "extras": {
        "name": "mixamorig_Spine1"
      },
      "children": [
        11
      ]
    },
    {
      "matrix": [
        1,
        0,
        0,
        0,
        0,
        0.9999802691222355,
        0.006281828163902936,
        0,
        0,
        -0.006281828163902936,
        0.9999802691222355,
        0,
        0,
        10.810325622558594,
        0.06790995597839355,
        1
      ],
      "name": "mixamorig_Spine",
      "extras": {
        "name": "mixamorig_Spine"
      },
      "children": [
        12
      ]
    },
    {
      "matrix": [
        1,
        0,
        -1.2912000841355104e-16,
        0,
        -7.223597191479242e-33,
        1,
        -5.594483210025203e-17,
        0,
        1.2912000841355104e-16,
        5.594483210025203e-17,
        1,
        0,
        0,
        6.326932430267334,
        0,
        1
      ],
      "name": "mixamorig_LeftToe_End",
      "extras": {
        "name": "mixamorig_LeftToe_End"
      }
    },
    {
      "matrix": [
        0.9447858875365949,
        6.451180034616755e-9,
        0.32768831488583183,
        0,
        -0.19566760904736125,
        0.8021556438265875,
        0.5641458390936045,
        0,
        -0.26285703049833975,
        -0.5971150148815034,
        0.7578653326627656,
        0,
        0,
        13.40667724609375,
        1.7763568394002505e-15,
        1
      ],
      "name": "mixamorig_LeftToeBase",
      "extras": {
        "name": "mixamorig_LeftToeBase"
      },
      "children": [
        14
      ]
    },
    {
      "matrix": [
        0.9811842730215987,
        2.131330667509701e-10,
        -0.19307362396412997,
        0,
        0.16565790019564508,
        0.5136433376894176,
        0.8418598640791706,
        0,
        0.0991709855422036,
        -0.8580038290384431,
        0.5039787643869111,
        0,
        0,
        35.69348907470703,
        -4.440892098500626e-16,
        1
      ],
      "name": "mixamorig_LeftFoot",
      "extras": {
        "name": "mixamorig_LeftFoot"
      },
      "children": [
        15
      ]
    },
    {
      "matrix": [
        0.9994454906027876,
        0.033297316893780494,
        -1.592170839614937e-12,
        0,
        -0.03320764287176844,
        0.9967538533993648,
        -0.07334172195999959,
        0,
        -0.0024420825591955353,
        0.07330105328596555,
        0.9973068694303703,
        0,
        0,
        36.09270095825195,
        0,
        1
      ],
      "name": "mixamorig_LeftLeg",
      "extras": {
        "name": "mixamorig_LeftLeg"
      },
      "children": [
        16
      ]
    },
    {
      "matrix": [
        -0.9998585209156465,
        -0.016816829892539756,
        -0.00005395062351391767,
        0,
        0.016816916432699433,
        -0.9998533756251633,
        -0.0032076625327188612,
        0,
        3.815081930924613e-13,
        -0.0032081162063718827,
        0.9999948539817959,
        0,
        11.439379692077637,
        -6.014122009277344,
        0.3053329288959503,
        1
      ],
      "name": "mixamorig_LeftUpLeg",
      "extras": {
        "name": "mixamorig_LeftUpLeg"
      },
      "children": [
        17
      ]
    },
    {
      "matrix": [
        1,
        -1.7347234759768042e-18,
        1.6176296413483726e-16,
        0,
        1.7347234759768098e-18,
        1,
        -3.469446951953614e-17,
        0,
        -1.6176296413483726e-16,
        3.469446951953614e-17,
        1,
        0,
        1.7763568394002505e-15,
        6.388357639312744,
        0,
        1
      ],
      "name": "mixamorig_RightToe_End",
      "extras": {
        "name": "mixamorig_RightToe_End"
      }
    },
    {
      "matrix": [
        0.9522226974154995,
        -4.396331299005851e-9,
        -0.30540454682463314,
        0,
        0.16278903217987928,
        0.8460978986015895,
        0.5075609181795312,
        0,
        0.25840214438564124,
        -0.5330275364944203,
        0.8056736237923281,
        0,
        1.7763568394002505e-15,
        15.006667137145996,
        -8.881784197001252e-16,
        1
      ],
      "name": "mixamorig_RightToeBase",
      "extras": {
        "name": "mixamorig_RightToeBase"
      },
      "children": [
        19
      ]
    },
    {
      "matrix": [
        0.986917872645987,
        -4.915059026444624e-9,
        0.16122379418679733,
        0,
        -0.1480797352034542,
        0.395483201309315,
        0.906457605567659,
        0,
        -0.06376130357875143,
        -0.918473188868014,
        0.3903094392294698,
        0,
        -1.7763568394002505e-15,
        35.92259216308594,
        -8.881784197001252e-16,
        1
      ],
      "name": "mixamorig_RightFoot",
      "extras": {
        "name": "mixamorig_RightFoot"
      },
      "children": [
        20
      ]
    },
    {
      "matrix": [
        0.9994452764845845,
        -0.03330374404824844,
        3.7044839418243214e-11,
        0,
        0.03299788158309579,
        0.9902663440566262,
        -0.13521726444672372,
        0,
        0.004503240906195444,
        0.1351422562553844,
        0.990815972976705,
        0,
        0,
        36.092525482177734,
        0,
        1
      ],
      "name": "mixamorig_RightLeg",
      "extras": {
        "name": "mixamorig_RightLeg"
      },
      "children": [
        21
      ]
    },
    {
      "matrix": [
        -0.9998584725218596,
        0.016816991022796463,
        0.00001364322105298991,
        0,
        -0.016816996557004388,
        -0.9998581434842024,
        -0.0008111609626172719,
        0,
        -1.9064063478888005e-13,
        -0.000811275689734926,
        0.9999996709158051,
        0,
        -11.439379692077637,
        -6.014122009277344,
        0.3683936893939972,
        1
      ],
      "name": "mixamorig_RightUpLeg",
      "extras": {
        "name": "mixamorig_RightUpLeg"
      },
      "children": [
        22
      ]
    },
    {
      "matrix": [
        1,
        0,
        0,
        0,
        0,
        1,
        0,
        0,
        0,
        0,
        1,
        0,
        0,
        85.5638427734375,
        -0.31551340222358704,
        1
      ],
      "name": "mixamorig_Hips",
      "extras": {
        "name": "mixamorig_Hips"
      },
      "children": [
        13,
        18,
        23
      ]
    },
    {
      "name": "mesh_0",
      "extras": {
        "paintingEnabled": true
      },
      "mesh": 0,
      "skin": 0
    },
    {
      "name": "mesh_0_1",
      "extras": {
        "paintingEnabled": true
      },
      "mesh": 1,
      "skin": 1
    },
    {
      "name": "mesh_0_2",
      "extras": {
        "paintingEnabled": true
      },
      "mesh": 2,
      "skin": 2
    },
    {
      "matrix": [
        100,
        0,
        0,
        0,
        0,
        -0.000013435886114798734,
        -99.99999999999912,
        0,
        0,
        99.99999999999912,
        -0.000013435886114798734,
        0,
        -1.862645149230957e-7,
        76,
        0,
        1
      ],
      "name": "Blockman",
      "extras": {
        "name": "Blockman"
      },
      "children": [
        25,
        26,
        27
      ]
    },
    {
      "name": "FBX_Root",
      "extras": {
        "name": "FBX_Root"
      },
      "children": [
        24,
        28
      ]
    },
    {
      "matrix": [
        0.018072289110445672,
        0,
        0,
        0,
        0,
        0.009036144555222838,
        0.015651061474182826,
        0,
        0,
        -0.015651061474182826,
        0.009036144555222838,
        0,
        1.862645149230957e-7,
        -82.99999962064133,
        -2.4999989104764344,
        1
      ],
      "name": "empty_1",
      "children": [
        29
      ]
    }
  ],
  "bufferViews": [
    {
      "buffer": 0,
      "byteOffset": 0,
      "byteLength": 11664,
      "target": 34962,
      "byteStride": 12
    },
    {
      "buffer": 0,
      "byteOffset": 11664,
      "byteLength": 11664,
      "target": 34962,
      "byteStride": 12
    },
    {
      "buffer": 0,
      "byteOffset": 23328,
      "byteLength": 7776,
      "target": 34962,
      "byteStride": 8
    },
    {
      "buffer": 0,
      "byteOffset": 31104,
      "byteLength": 7776,
      "target": 34962,
      "byteStride": 8
    },
    {
      "buffer": 0,
      "byteOffset": 38880,
      "byteLength": 15552,
      "target": 34962,
      "byteStride": 16
    },
    {
      "buffer": 0,
      "byteOffset": 54432,
      "byteLength": 2016,
      "target": 34963
    },
    {
      "buffer": 0,
      "byteOffset": 56448,
      "byteLength": 432,
      "target": 34963
    },
    {
      "buffer": 0,
      "byteOffset": 56880,
      "byteLength": 1440,
      "target": 34963
    },
    {
      "buffer": 0,
      "byteOffset": 58320,
      "byteLength": 1600
    },
    {
      "buffer": 0,
      "byteOffset": 59920,
      "byteLength": 1600
    },
    {
      "buffer": 0,
      "byteOffset": 61520,
      "byteLength": 1600
    }
  ],
  "buffers": [
    {
      "byteLength": 63120,
      "uri": "data:application/octet-stream;base64,"
    }
  ],
  "accessors": [
    {
      "bufferView": 0,
      "componentType": 5126,
      "count": 972,
      "max": [
        0.6650000214576721,
        0.11499999463558197,
        0.8999999761581421
      ],
      "min": [
        -0.6650000214576721,
        -0.16499999165534973,
        -0.7599999904632568
      ],
      "type": "VEC3"
    },
    {
      "bufferView": 1,
      "componentType": 5126,
      "count": 972,
      "max": [
        1,
        1,
        1
      ],
      "min": [
        -1,
        -1,
        -1
      ],
      "type": "VEC3"
    },
    {
      "bufferView": 2,
      "componentType": 5126,
      "count": 972,
      "max": [
        0.875,
        1
      ],
      "min": [
        0.125,
        0
      ],
      "type": "VEC2"
    },
    {
      "bufferView": 3,
      "componentType": 5123,
      "count": 972,
      "max": [
        23,
        23,
        21,
        14
      ],
      "min": [
        0,
        0,
        0,
        0
      ],
      "type": "VEC4"
    },
    {
      "bufferView": 4,
      "componentType": 5126,
      "count": 972,
      "max": [
        1,
        0.9964399337768555,
        0.9838734269142151,
        0.3684564232826233
      ],
      "min": [
        1.6321130915947918e-13,
        0,
        0,
        0
      ],
      "type": "VEC4"
    },
    {
      "bufferView": 5,
      "componentType": 5125,
      "count": 504,
      "max": [
        503
      ],
      "min": [
        0
      ],
      "type": "SCALAR"
    },
    {
      "bufferView": 6,
      "componentType": 5125,
      "count": 108,
      "max": [
        611
      ],
      "min": [
        504
      ],
      "type": "SCALAR"
    },
    {
      "bufferView": 7,
      "componentType": 5125,
      "count": 360,
      "max": [
        971
      ],
      "min": [
        612
      ],
      "type": "SCALAR"
    },
    {
      "bufferView": 8,
      "componentType": 5126,
      "count": 25,
      "max": [
        100,
        99.99279022216797,
        24.59943389892578,
        0,
        99.99777221679688,
        13.602018356323242,
        0.9724118709564209,
        0,
        23.322959899902344,
        100,
        97.2411880493164,
        0,
        29.338802337646484,
        10.324060440063477,
        70.9931411743164,
        1
      ],
      "min": [
        -99.98585510253906,
        -99.99420928955078,
        -24.598590850830078,
        0,
        -99.99798583984375,
        -99.99855041503906,
        -100,
        0,
        -23.414772033691406,
        -99.98582458496094,
        -99.99214935302734,
        0,
        -29.406394958496094,
        -165.99148559570312,
        -7.4152655601501465,
        1
      ],
      "type": "MAT4"
    },
    {
      "bufferView": 9,
      "componentType": 5126,
      "count": 25,
      "max": [
        100,
        99.99279022216797,
        24.59943389892578,
        0,
        99.99777221679688,
        13.602018356323242,
        0.9724118709564209,
        0,
        23.322959899902344,
        100,
        97.2411880493164,
        0,
        29.338802337646484,
        10.324060440063477,
        70.9931411743164,
        1
      ],
      "min": [
        -99.98585510253906,
        -99.99420928955078,
        -24.598590850830078,
        0,
        -99.99798583984375,
        -99.99855041503906,
        -100,
        0,
        -23.414772033691406,
        -99.98582458496094,
        -99.99214935302734,
        0,
        -29.406394958496094,
        -165.99148559570312,
        -7.4152655601501465,
        1
      ],
      "type": "MAT4"
    },
    {
      "bufferView": 10,
      "componentType": 5126,
      "count": 25,
      "max": [
        100,
        99.99279022216797,
        24.59943389892578,
        0,
        99.99777221679688,
        13.602018356323242,
        0.9724118709564209,
        0,
        23.322959899902344,
        100,
        97.2411880493164,
        0,
        29.338802337646484,
        10.324060440063477,
        70.9931411743164,
        1
      ],
      "min": [
        -99.98585510253906,
        -99.99420928955078,
        -24.598590850830078,
        0,
        -99.99798583984375,
        -99.99855041503906,
        -100,
        0,
        -23.414772033691406,
        -99.98582458496094,
        -99.99214935302734,
        0,
        -29.406394958496094,
        -165.99148559570312,
        -7.4152655601501465,
        1
      ],
      "type": "MAT4"
    }
  ],
  "materials": [
    {
      "pbrMetallicRoughness": {
        "baseColorFactor": [
          0.3499999940395355,
          0.3499999940395355,
          0.3499999940395355,
          1
        ],
        "metallicFactor": 0,
        "roughnessFactor": 0.5,
        "baseColorTexture": {
          "index": 0
        }
      },
      "doubleSided": true,
      "name": "m_body"
    },
    {
      "pbrMetallicRoughness": {
        "baseColorFactor": [
          0.800000011920929,
          0.800000011920929,
          0.800000011920929,
          1
        ],
        "metallicFactor": 0,
        "roughnessFactor": 0.5,
        "baseColorTexture": {
          "index": 1
        }
      },
      "doubleSided": true,
      "name": "m_face"
    },
    {
      "pbrMetallicRoughness": {
        "baseColorFactor": [
          0.3499999940395355,
          0.3499999940395355,
          0.3499999940395355,
          1
        ],
        "metallicFactor": 0,
        "roughnessFactor": 0.5,
        "baseColorTexture": {
          "index": 2
        }
      },
      "doubleSided": true,
      "name": "m_body"
    }
  ],
  "textures": [
    {
      "sampler": 0,
      "source": 0
    },
    {
      "sampler": 1,
      "source": 1
    },
    {
      "sampler": 2,
      "source": 2
    }
  ],
  "samplers": [
    {
      "magFilter": 9729,
      "minFilter": 9729,
      "wrapS": 10497,
      "wrapT": 10497
    },
    {
      "magFilter": 9729,
      "minFilter": 9729,
      "wrapS": 10497,
      "wrapT": 10497
    },
    {
      "magFilter": 9729,
      "minFilter": 9729,
      "wrapS": 10497,
      "wrapT": 10497
    }
  ],
  "images": [
    {
      "mimeType": "image/png",
      "uri": "data:image/png;base64,"
    },
    {
      "mimeType": "image/png",
      "uri": "data:image/png;base64,"
    },
    {
      "mimeType": "image/png",
      "uri": "data:image/png;base64,"
    }
  ],
  "meshes": [
    {
      "primitives": [
        {
          "mode": 4,
          "attributes": {
            "POSITION": 0,
            "NORMAL": 1,
            "TEXCOORD_0": 2,
            "JOINTS_0": 3,
            "WEIGHTS_0": 4
          },
          "indices": 5,
          "material": 0
        }
      ]
    },
    {
      "primitives": [
        {
          "mode": 4,
          "attributes": {
            "POSITION": 0,
            "NORMAL": 1,
            "TEXCOORD_0": 2,
            "JOINTS_0": 3,
            "WEIGHTS_0": 4
          },
          "indices": 6,
          "material": 1
        }
      ]
    },
    {
      "primitives": [
        {
          "mode": 4,
          "attributes": {
            "POSITION": 0,
            "NORMAL": 1,
            "TEXCOORD_0": 2,
            "JOINTS_0": 3,
            "WEIGHTS_0": 4
          },
          "indices": 7,
          "material": 2
        }
      ]
    }
  ],
  "skins": [
    {
      "inverseBindMatrices": 8,
      "joints": [
        24,
        13,
        12,
        11,
        2,
        1,
        0,
        6,
        5,
        4,
        3,
        10,
        9,
        8,
        7,
        18,
        17,
        16,
        15,
        14,
        23,
        22,
        21,
        20,
        19
      ],
      "skeleton": 24
    },
    {
      "inverseBindMatrices": 9,
      "joints": [
        24,
        13,
        12,
        11,
        2,
        1,
        0,
        6,
        5,
        4,
        3,
        10,
        9,
        8,
        7,
        18,
        17,
        16,
        15,
        14,
        23,
        22,
        21,
        20,
        19
      ],
      "skeleton": 24
    },
    {
      "inverseBindMatrices": 10,
      "joints": [
        24,
        13,
        12,
        11,
        2,
        1,
        0,
        6,
        5,
        4,
        3,
        10,
        9,
        8,
        7,
        18,
        17,
        16,
        15,
        14,
        23,
        22,
        21,
        20,
        19
      ],
      "skeleton": 24
    }
  ]
}